<svg xmlns="http://www.w3.org/2000/svg" viewBox="0 0 200 200" width="200" height="200">
  <rect width="200" height="200" rx="16" fill="#F0F7E6"/>
  <!-- Sun -->
  <circle cx="100" cy="72" r="28" fill="#F5C518" opacity="0.9"/>
  <circle cx="100" cy="72" r="20" fill="#F5C518"/>
  <!-- Sun rays -->
  <line x1="100" y1="28" x2="100" y2="38" stroke="#F5C518" stroke-width="4" stroke-linecap="round"/>
  <line x1="100" y1="106" x2="100" y2="116" stroke="#F5C518" stroke-width="4" stroke-linecap="round"/>
  <line x1="56"  y1="72"  x2="66"  y2="72"  stroke="#F5C518" stroke-width="4" stroke-linecap="round"/>
  <line x1="134" y1="72"  x2="144" y2="72"  stroke="#F5C518" stroke-width="4" stroke-linecap="round"/>
  <line x1="69"  y1="41"  x2="76"  y2="48"  stroke="#F5C518" stroke-width="4" stroke-linecap="round"/>
  <line x1="124" y1="96"  x2="131" y2="103" stroke="#F5C518" stroke-width="4" stroke-linecap="round"/>
  <line x1="131" y1="41"  x2="124" y2="48"  stroke="#F5C518" stroke-width="4" stroke-linecap="round"/>
  <line x1="69"  y1="96"  x2="76"  y2="103" stroke="#F5C518" stroke-width="4" stroke-linecap="round"/>
  <!-- Rolling hills -->
  <ellipse cx="60"  cy="155" rx="55" ry="35" fill="#4CAF50" opacity="0.7"/>
  <ellipse cx="140" cy="160" rx="55" ry="30" fill="#388E3C" opacity="0.8"/>
  <ellipse cx="100" cy="165" rx="65" ry="28" fill="#2E7D32"/>
  <!-- Plant sprout -->
  <line x1="100" y1="165" x2="100" y2="120" stroke="#2E7D32" stroke-width="4" stroke-linecap="round"/>
  <ellipse cx="84"  cy="133" rx="16" ry="10" fill="#4CAF50" transform="rotate(-30 84 133)"/>
  <ellipse cx="116" cy="128" rx="16" ry="10" fill="#66BB6A" transform="rotate(30 116 128)"/>
  <!-- Text -->
  <text x="100" y="191" text-anchor="middle" font-family="Georgia,serif" font-size="10" font-weight="700" fill="#2E7D32" letter-spacing="0.4">BODIJA FARMERS</text>
</svg>
